<?xml version="1.0" encoding="utf-8"?>
<!-- Generator: Adobe Illustrator 21.1.0, SVG Export Plug-In . SVG Version: 6.00 Build 0)  -->
<svg version="1.1" id="Layer_1" xmlns="http://www.w3.org/2000/svg" xmlns:xlink="http://www.w3.org/1999/xlink" x="0px" y="0px"
	 viewBox="0 0 72 56" style="enable-background:new 0 0 72 56;" xml:space="preserve">
<style type="text/css">
	.st0{fill:#107C10;}
</style>
<g>
	<path class="st0" d="M53.8,13.5c1.6,0.7,3.1,1.6,4.4,2.8c1.3,1.1,2.4,2.4,3.4,3.8c0.9,1.4,1.6,2.9,2.1,4.6c0.5,1.6,0.8,3.3,0.8,5.1
		c0,2.5-0.5,4.8-1.4,6.9c-0.9,2.1-2.2,4-3.8,5.6s-3.5,2.9-5.7,3.8c-2.2,0.9-4.5,1.4-6.9,1.4c-1.9,0-3.8-0.3-5.6-0.9
		C39.3,46,37.6,45.1,36,44l-7.1,7L7.5,29.8L32.4,5h21.4C53.8,5,53.8,13.5,53.8,13.5z M28.9,46l21.4-21.2v-8.7
		C50,16,49.6,16,49.1,15.9c-0.5,0-1-0.1-1.5-0.1s-1.1-0.1-1.6-0.1c-0.5-0.1-1-0.2-1.4-0.3s-0.8-0.3-1-0.6c-0.3-0.2-0.4-0.6-0.4-1
		c0-0.5,0.2-0.9,0.5-1.2c0.4-0.3,0.8-0.5,1.3-0.5c0.9,0,1.8,0,2.7,0s1.8,0.1,2.7,0.3V8.5H33.9L12.5,29.8L28.9,46z M46.7,43.9
		c2,0,3.8-0.4,5.5-1.1c1.7-0.7,3.2-1.8,4.5-3c1.3-1.3,2.3-2.8,3.1-4.5s1.1-3.5,1.1-5.5c0-1.3-0.2-2.5-0.5-3.7s-0.8-2.3-1.4-3.4
		c-0.6-1.1-1.4-2-2.2-2.9c-0.9-0.9-1.9-1.6-3-2.3v8.7L38.6,41.4c1.2,0.8,2.5,1.5,3.9,1.9C43.8,43.7,45.2,43.9,46.7,43.9z"/>
</g>
</svg>
